<?xml version="1.0" encoding="UTF-8"?>
<svg xmlns="http://www.w3.org/2000/svg" xmlns:xlink="http://www.w3.org/1999/xlink" width="100px" height="100px" viewBox="0 0 100 100" version="1.1">
<g id="surface1">
<path style=" stroke:none;fill-rule:nonzero;fill:rgb(0%,0%,0%);fill-opacity:1;" d="M 0 50 L 0 100 L 100 100 L 100 0 L 0 0 Z M 46.746094 2.382812 C 50.398438 3.515625 54.523438 4.726562 55.953125 5.15625 C 57.382812 5.546875 59.882812 6.289062 61.507812 6.796875 C 63.136719 7.304688 67.261719 8.554688 70.636719 9.570312 C 82.023438 12.96875 85.515625 14.140625 86.707031 14.84375 C 89.046875 16.25 89.246094 16.953125 93.414062 34.765625 C 100.277344 64.179688 99.800781 61.835938 99.246094 63.75 C 98.609375 65.820312 97.578125 66.835938 77.976562 84.765625 C 69.207031 92.773438 62.660156 98.4375 61.707031 98.867188 C 58.890625 100.15625 59.5625 100.273438 42.0625 94.921875 C 38.015625 93.671875 31.707031 91.757812 27.976562 90.625 C 13.847656 86.40625 12.976562 86.015625 11.707031 83.632812 C 11.390625 83.007812 10.398438 79.453125 9.523438 75.742188 C 8.652344 71.992188 7.539062 67.460938 7.101562 65.625 C 6.667969 63.789062 5.753906 60 5.160156 57.226562 C 4.523438 54.414062 3.214844 48.632812 2.222656 44.335938 C 1.230469 40.039062 0.398438 36.171875 0.398438 35.742188 C 0.4375 33.359375 1.90625 31.796875 18.015625 16.992188 C 26.90625 8.828125 34.882812 1.757812 35.792969 1.25 C 36.707031 0.78125 38.015625 0.390625 38.769531 0.390625 C 39.523438 0.390625 43.09375 1.289062 46.746094 2.382812 Z M 46.746094 2.382812 "/>
<path style=" stroke:none;fill-rule:nonzero;fill:rgb(0%,0%,0%);fill-opacity:1;" d="M 24.007812 22.070312 C 11.628906 33.359375 10.117188 34.882812 10.039062 36.015625 C 9.921875 37.1875 10.554688 37.96875 16.90625 44.726562 C 20.753906 48.789062 24.285156 52.304688 24.800781 52.5 C 25.476562 52.773438 25.992188 52.695312 26.667969 52.265625 C 27.660156 51.601562 53.609375 27.890625 54.046875 27.1875 C 54.882812 25.9375 54.207031 24.84375 49.523438 19.84375 C 41.269531 10.9375 39.644531 9.375 38.730469 9.375 C 38.136719 9.375 33.332031 13.554688 24.007812 22.070312 Z M 24.007812 22.070312 "/>
<path style=" stroke:none;fill-rule:nonzero;fill:rgb(0%,0%,0%);fill-opacity:1;" d="M 44.644531 10.15625 C 44.324219 10.664062 44.207031 10.507812 51.429688 18.125 C 54.285156 21.171875 57.101562 23.789062 57.816406 24.0625 C 58.96875 24.53125 59.601562 24.492188 63.96875 23.476562 C 66.667969 22.851562 70.59375 21.992188 72.699219 21.484375 C 74.839844 21.015625 76.667969 20.507812 76.785156 20.3125 C 77.144531 19.765625 76.070312 19.257812 72.421875 18.164062 C 70.476562 17.578125 65.554688 16.09375 61.507812 14.84375 C 57.460938 13.59375 52.339844 12.03125 50.117188 11.367188 C 47.898438 10.703125 45.792969 10.039062 45.476562 9.921875 C 45.160156 9.804688 44.800781 9.921875 44.644531 10.15625 Z M 44.644531 10.15625 "/>
<path style=" stroke:none;fill-rule:nonzero;fill:rgb(0%,0%,0%);fill-opacity:1;" d="M 77.183594 22.734375 C 64.40625 25.585938 60.039062 26.679688 59.5625 27.148438 C 58.847656 27.8125 58.890625 28.90625 59.683594 32.226562 C 60 33.75 60.992188 37.929688 61.863281 41.601562 C 62.699219 45.234375 64.085938 51.132812 64.882812 54.6875 C 67.144531 64.570312 67.339844 65.195312 68.492188 65.625 C 69.523438 66.015625 71.90625 65.625 79.007812 63.867188 C 81.152344 63.320312 84.285156 62.617188 85.953125 62.304688 C 89.761719 61.601562 90.871094 60.9375 90.871094 59.375 C 90.871094 58.710938 90.277344 55.703125 89.523438 52.65625 C 88.214844 47.265625 87.339844 43.476562 84.324219 30.273438 C 82.816406 23.789062 82.300781 22.5 81.070312 22.1875 C 80.675781 22.109375 78.929688 22.34375 77.183594 22.734375 Z M 77.183594 22.734375 "/>
<path style=" stroke:none;fill-rule:nonzero;fill:rgb(0%,0%,0%);fill-opacity:1;" d="M 45.355469 38.359375 C 28.292969 53.984375 28.253906 54.023438 29.484375 55 C 29.722656 55.195312 33.253906 56.367188 37.300781 57.617188 C 46.152344 60.3125 52.144531 62.148438 56.945312 63.671875 C 62.699219 65.46875 63.371094 65.625 64.128906 65.039062 C 64.921875 64.492188 65.039062 65.273438 60.914062 47.65625 C 56.507812 28.789062 56.785156 29.6875 55.59375 29.6875 C 55.160156 29.6875 50.714844 33.476562 45.355469 38.359375 Z M 45.355469 38.359375 "/>
<path style=" stroke:none;fill-rule:nonzero;fill:rgb(0%,0%,0%);fill-opacity:1;" d="M 9.921875 42.03125 C 9.921875 42.34375 10.398438 44.609375 10.953125 46.992188 C 11.507812 49.414062 12.578125 54.101562 13.371094 57.421875 C 16.46875 70.703125 17.261719 73.867188 17.660156 73.90625 C 18.53125 73.945312 23.652344 57.265625 23.253906 55.664062 C 23.136719 55.15625 22.183594 53.789062 21.152344 52.65625 C 17.300781 48.28125 10.59375 41.40625 10.277344 41.40625 C 10.078125 41.40625 9.921875 41.679688 9.921875 42.03125 Z M 9.921875 42.03125 "/>
<path style=" stroke:none;fill-rule:nonzero;fill:rgb(0%,0%,0%);fill-opacity:1;" d="M 26.109375 58.085938 C 25.476562 58.828125 24.921875 60.390625 21.429688 71.523438 C 19.800781 76.757812 19.484375 78.203125 19.800781 79.023438 C 20.199219 80.078125 22.261719 80.78125 40.277344 86.25 C 43.136719 87.109375 47.898438 88.554688 50.953125 89.453125 C 57.898438 91.5625 58.175781 91.523438 59.445312 87.695312 C 61.945312 80.15625 64.445312 71.914062 64.601562 70.664062 C 64.800781 68.710938 64.128906 68.164062 59.40625 66.757812 C 57.183594 66.09375 53.769531 65.078125 51.785156 64.453125 C 49.839844 63.867188 45.714844 62.617188 42.660156 61.71875 C 39.601562 60.820312 35.199219 59.453125 32.855469 58.75 C 28.015625 57.226562 26.945312 57.148438 26.109375 58.085938 Z M 26.109375 58.085938 "/>
<path style=" stroke:none;fill-rule:nonzero;fill:rgb(0%,0%,0%);fill-opacity:1;" d="M 83.929688 65.234375 C 83.292969 65.390625 80.078125 66.09375 76.785156 66.796875 C 69.921875 68.242188 68.53125 68.75 67.699219 70 C 67.382812 70.46875 66.429688 73.007812 65.636719 75.585938 C 62.261719 86.367188 61.863281 88.125 62.660156 87.8125 C 63.292969 87.617188 87.300781 65.507812 87.300781 65.15625 C 87.300781 64.765625 85.554688 64.804688 83.929688 65.234375 Z M 83.929688 65.234375 "/>
</g>
</svg>
