<?xml version="1.0" encoding="UTF-8"?>
<svg xmlns="http://www.w3.org/2000/svg" xmlns:xlink="http://www.w3.org/1999/xlink" width="100px" height="100px" viewBox="0 0 100 100" version="1.1">
<g id="surface1">
<path style=" stroke:none;fill-rule:evenodd;fill:rgb(100%,0%,0%);fill-opacity:1;" d="M 33.15625 78.800781 C 17.152344 78.800781 4.167969 65.847656 4.167969 49.839844 C 4.167969 33.832031 17.152344 20.832031 33.15625 20.832031 L 66.847656 20.832031 C 82.855469 20.832031 95.832031 33.832031 95.832031 49.839844 C 95.832031 65.847656 82.855469 78.800781 66.847656 78.800781 Z M 66.101562 68.578125 C 76.46875 68.578125 84.863281 60.203125 84.863281 49.839844 C 84.863281 39.476562 76.46875 31.058594 66.101562 31.058594 L 33.898438 31.058594 C 23.539062 31.058594 15.136719 39.476562 15.136719 49.839844 C 15.136719 60.203125 23.539062 68.578125 33.898438 68.578125 Z M 66.101562 68.578125 "/>
</g>
</svg>
